<svg xmlns="http://www.w3.org/2000/svg" width="24" height="24" viewBox="0 0 24 24">
  <path fill="#343446" fill-rule="evenodd" d="M11.178372,9.99989544 L19.7556778,18.577986 C20.0814407,18.9033762 20.0814407,19.4311944 19.7556778,19.7565847 C19.5936359,19.9188616 19.3803787,20 19.1671214,20 C18.9538642,20 18.740607,19.9188616 18.5777255,19.7565847 L9.9995802,11.1784941 L1.42227446,19.7565847 C1.26023257,19.9188616 1.04697536,20 0.833718148,20 C0.620460938,20 0.407203728,19.9188616 0.244322237,19.7565847 C-0.0814407456,19.4311944 -0.0814407456,18.9033762 0.244322237,18.577986 L8.82162798,9.99989544 L0.244322237,1.42264139 C-0.0814407456,1.09725112 -0.0814407456,0.569432972 0.244322237,0.244042702 C0.570085219,-0.0813475674 1.09735108,-0.0813475674 1.42227446,0.244042702 L9.9995802,8.82129675 L18.5768859,0.244042702 C18.9026489,-0.0813475674 19.4299148,-0.0813475674 19.7556778,0.244042702 C20.0806012,0.569432972 20.0806012,1.09725112 19.7556778,1.42264139 L11.178372,9.99989544 Z" transform="translate(2 2)"/>
</svg>
