<svg width="210" height="70" viewBox="0 0 210 70" fill="none" xmlns="http://www.w3.org/2000/svg">
<path d="M64.5794 43.7779C68.2964 43.7779 70.767 41.9194 70.767 38.7928V38.7491C70.767 35.8848 68.5806 34.7479 65.0604 33.9826C62.9396 33.5016 62.4148 33.1955 62.4148 32.4958V32.4521C62.4148 31.9055 62.9177 31.4682 63.9453 31.4682C65.3009 31.4682 66.8314 31.9929 68.2308 32.9768L70.3516 29.9814C68.6899 28.6477 66.6565 27.948 64.0546 27.948C60.3814 27.948 58.1294 30.0033 58.1294 32.8456V32.8894C58.1294 36.0379 60.6438 36.9562 63.9016 37.6996C65.9787 38.1806 66.4816 38.5304 66.4816 39.1645V39.2082C66.4816 39.8642 65.8694 40.2577 64.7324 40.2577C62.9614 40.2577 61.2779 39.6236 59.7692 38.4211L57.4078 41.2416C59.2882 42.9252 61.8682 43.7779 64.5794 43.7779Z" fill="white"/>
<path d="M79.7171 43.7998C84.0682 43.7998 86.8887 41.6352 86.8887 36.6938V28.2104H82.5814V36.825C82.5814 38.9677 81.4663 39.9735 79.7609 39.9735C78.0554 39.9735 76.9404 38.924 76.9404 36.7157V28.2104H72.633V36.8031C72.633 41.5914 75.3661 43.7998 79.7171 43.7998Z" fill="white"/>
<path d="M89.399 43.5155H93.597V35.1196L100.134 43.5155H103.851V28.2104H99.6535V36.3002L93.3565 28.2104H89.399V43.5155Z" fill="white"/>
<path d="M106.566 43.5155H110.808V39.1426H112.907C116.711 39.1426 119.488 37.2404 119.488 33.6328V33.589C119.488 30.2 116.995 28.2104 113.125 28.2104H106.566V43.5155ZM110.808 35.8192V31.7743H112.797C114.328 31.7743 115.246 32.4739 115.246 33.7858V33.8295C115.246 35.0321 114.328 35.8192 112.819 35.8192H110.808Z" fill="white"/>
<path d="M121.278 43.5155H125.519V37.6996H130.964V43.5155H135.205V28.2104H130.964V33.9389H125.519V28.2104H121.278V43.5155Z" fill="white"/>
<path d="M136.686 43.5155H141.147L142.24 40.7825H148.143L149.259 43.5155H153.806L147.291 28.101H143.202L136.686 43.5155ZM143.486 37.4809L145.214 33.1299L146.919 37.4809H143.486Z" fill="white"/>
<path d="M155.291 43.5155H161.107C166.617 43.5155 169.831 40.2358 169.831 35.8192V35.7755C169.831 31.3589 166.661 28.2104 161.195 28.2104H155.291V43.5155ZM159.533 39.7548V31.9711H161.26C163.797 31.9711 165.48 33.3923 165.48 35.8411V35.8848C165.48 38.3555 163.797 39.7548 161.26 39.7548H159.533Z" fill="white"/>
<path d="M172.01 43.5155H184.429V39.9079H176.208V37.4809H183.555V34.1357H176.208V31.818H184.32V28.2104H172.01V43.5155Z" fill="white"/>
<path opacity="0.3" d="M44.317 29.484V38.99L20.9545 51.905L48.307 45.4475V28.5425L44.317 29.484Z" fill="#BBEAE9"/>
<path d="M44.317 29.484V22.085L37.8595 25.655V31.01L44.317 29.484Z" fill="#5EDDDA"/>
<path d="M44.317 29.4839L37.8595 31.0099V34.9999L20.9545 51.9049L44.317 38.9899V29.4839Z" fill="#00CCCC"/>
<path d="M37.8595 18.095L20.9545 35L37.8595 25.655V18.095Z" fill="#FFE27E"/>
<path d="M37.8595 25.655L20.9545 35L37.8595 31.01V25.655Z" fill="#FDC066"/>
<path d="M37.8595 31.01L20.9545 35V51.905L37.8595 35V31.01Z" fill="#F89E4F"/>
</svg>
