<svg width="210" height="70" viewBox="0 0 210 70" fill="none" xmlns="http://www.w3.org/2000/svg">
<path d="M58.086 42.805L60.4485 39.984C61.957 41.188 63.6405 41.8215 65.4115 41.8215C66.549 41.8215 67.1615 41.4295 67.1615 40.7715V40.7295C67.1615 40.096 66.6575 39.746 64.582 39.263C61.3235 38.521 58.8105 37.6005 58.8105 34.454V34.412C58.8105 31.57 61.061 29.5155 64.736 29.5155C67.3365 29.5155 69.37 30.2155 71.0325 31.549L68.9115 34.545C67.5115 33.5615 65.982 33.0365 64.6275 33.0365C63.5985 33.0365 63.098 33.474 63.098 34.02V34.062C63.098 34.762 63.623 35.0665 65.744 35.5495C69.265 36.316 71.449 37.4535 71.449 40.3165V40.3585C71.449 43.484 68.978 45.3425 65.261 45.3425C62.5485 45.3425 59.969 44.4885 58.0895 42.805H58.086Z" fill="#006A6B"/>
<path d="M73.738 38.367V29.7745H78.0465V38.2795C78.0465 40.488 79.163 41.538 80.8675 41.538C82.572 41.538 83.6885 40.5335 83.6885 38.388V29.7745H87.997V38.2585C87.997 43.2005 85.176 45.3635 80.8255 45.3635C76.475 45.3635 73.7415 43.155 73.7415 38.367H73.738Z" fill="#006A6B"/>
<path d="M91.2135 29.7745H95.172L101.469 37.863V29.7745H105.665V45.08H101.948L95.41 36.6835V45.08H91.2135V29.7745Z" fill="#006A6B"/>
<path d="M109.046 29.7745H115.605C119.476 29.7745 121.968 31.7625 121.968 35.154V35.196C121.968 38.8045 119.193 40.705 115.388 40.705H113.288V45.0765H109.046V29.771V29.7745ZM115.301 37.3835C116.809 37.3835 117.726 36.596 117.726 35.3955V35.3535C117.726 34.041 116.809 33.341 115.276 33.341H113.288V37.387H115.301V37.3835Z" fill="#006A6B"/>
<path d="M124.114 29.7745H128.356V35.504H133.798V29.7745H138.04V45.08H133.798V39.263H128.356V45.08H124.114V29.7745Z" fill="#006A6B"/>
<path d="M146.367 29.6625H150.455L156.972 45.0765H152.425L151.309 42.343H145.404L144.312 45.0765H139.853L146.37 29.6625H146.367ZM150.084 39.0425L148.379 34.692L146.654 39.0425H150.087H150.084Z" fill="#006A6B"/>
<path d="M158.792 29.7745H164.696C170.163 29.7745 173.334 32.9245 173.334 37.338V37.38C173.334 41.797 170.121 45.0765 164.609 45.0765H158.792V29.771V29.7745ZM164.759 41.3175C167.296 41.3175 168.98 39.9175 168.98 37.4465V37.4045C168.98 34.9545 167.296 33.5335 164.759 33.5335H163.03V41.3175H164.759Z" fill="#006A6B"/>
<path d="M175.948 29.7745H188.258V33.383H180.145V35.7H187.491V39.046H180.145V41.4715H188.366V45.08H175.948V29.7745Z" fill="#006A6B"/>
<path d="M44.996 29.484V38.99L21.6335 51.905L48.986 45.4475V28.5425L44.996 29.484Z" fill="#BBEAE9"/>
<path d="M44.996 29.484V22.085L38.5385 25.655V31.01L44.996 29.484Z" fill="#5EDDDA"/>
<path d="M44.996 29.484L38.5385 31.01V35L21.6335 51.905L44.996 38.99V29.484Z" fill="#00CCCC"/>
<path d="M38.5385 18.095L21.6335 35L38.5385 25.655V18.095Z" fill="#FFE27E"/>
<path d="M38.5385 25.655L21.6335 35L38.5385 31.01V25.655Z" fill="#FDC066"/>
<path d="M38.5385 31.01L21.6335 35V51.905L38.5385 35V31.01Z" fill="#F89E4F"/>
</svg>
